<svg xmlns="http://www.w3.org/2000/svg" version="1.1" xmlns:xlink="http://www.w3.org/1999/xlink" xmlns:svgjs="http://svgjs.dev/svgjs" width="1500" height="473" viewBox="0 0 1500 473"><g transform="matrix(1,0,0,1,-0.9090909090909918,-0.7000684971937403)"><svg viewBox="0 0 396 125" data-background-color="#dedede" preserveAspectRatio="xMidYMid meet" height="473" width="1500" xmlns="http://www.w3.org/2000/svg" xmlns:xlink="http://www.w3.org/1999/xlink"><g id="tight-bounds" transform="matrix(1,0,0,1,0.2400000000000091,0.1850075309708643)"><svg viewBox="0 0 395.52 124.62998493805827" height="124.62998493805827" width="395.52"><g><svg viewBox="0 0 675.9203592888719 212.98529580678357" height="124.62998493805827" width="395.52"><g transform="matrix(1,0,0,1,280.4003592888719,10.684854915690607)"><svg viewBox="0 0 395.52 191.61558597540235" height="191.61558597540235" width="395.52"><g id="textblocktransform"><svg viewBox="0 0 395.52 191.61558597540235" height="191.61558597540235" width="395.52" id="textblock"><g><svg viewBox="0 0 395.52 142.78254350736276" height="142.78254350736276" width="395.52"><g transform="matrix(1,0,0,1,0,0)"><svg width="395.52" viewBox="2.5 -38.55 112.05 40.449999999999996" height="142.78254350736276" data-palette-color="#000000"><path d="M26.85-7.15L27.8-7.15 27.8 1.05 26.85 1.05Q26.85 0.75 26.7 0.38 26.55 0 26.3 0L26.3 0 2.55 0 2.55-0.95Q2.9-0.95 3.28-1.1 3.65-1.25 3.65-1.5L3.65-1.5 3.65-36Q3.65-36.25 3.25-36.4 2.85-36.55 2.5-36.55L2.5-36.55 2.5-37.5 11.5-37.5 11.5-36.55Q11.15-36.55 10.75-36.4 10.35-36.25 10.35-36L10.35-36 10.35-6.1 26.3-6.1Q26.55-6.1 26.7-6.48 26.85-6.85 26.85-7.15L26.85-7.15ZM50.35 0.5Q45 0.5 40.5-2.02 36-4.55 33.4-9.03 30.8-13.5 30.8-19L30.8-19Q30.8-24.8 33.4-29.25 36-33.7 40.4-36.13 44.8-38.55 50.05-38.55L50.05-38.55Q55.1-38.55 58.57-36.77 62.05-35 65.15-31.8L65.15-31.8Q65.25-31.7 65.45-31.7L65.45-31.7Q65.75-31.7 66.5-32.15L66.5-32.15 67.1-31.4 60.2-25.95 59.6-26.7Q59.9-26.9 60.07-27.23 60.25-27.55 60.05-27.7L60.05-27.7Q57.95-29.75 55.67-30.83 53.4-31.9 50.15-31.9L50.15-31.9Q46.75-31.9 43.9-30.23 41.05-28.55 39.4-25.6 37.75-22.65 37.75-19L37.75-19Q37.75-15.5 39.5-12.63 41.25-9.75 44.15-8.1 47.05-6.45 50.35-6.45L50.35-6.45Q53.45-6.45 55.65-7.53 57.85-8.6 59.8-10.75L59.8-10.75 59.9-10.95Q59.9-11.2 59.67-11.53 59.45-11.85 59.2-12L59.2-12 59.85-12.7 67.3-6.45 66.7-5.7Q66.4-5.95 65.95-6.15 65.5-6.35 65.35-6.15L65.35-6.15Q62.2-2.75 58.75-1.13 55.3 0.5 50.35 0.5L50.35 0.5ZM113.4-36L113.4-1.5Q113.4-1.25 113.77-1.1 114.15-0.95 114.55-0.95L114.55-0.95 114.55 0 105.8 0 105.8-0.95Q106.2-0.95 106.57-1.1 106.95-1.25 106.95-1.5L106.95-1.5 106.95-30.15 92.3 1.9 77.7-30.25 77.7-1.5Q77.7-1.25 78.07-1.1 78.45-0.95 78.84-0.95L78.84-0.95 78.84 0 70.05 0 70.05-0.95Q70.45-0.95 70.82-1.1 71.2-1.25 71.2-1.5L71.2-1.5 71.2-36Q71.2-36.25 70.82-36.4 70.45-36.55 70.09-36.55L70.09-36.55 70.09-37.5 83-37.5 83-36.55Q82.4-36.55 82.22-36.27 82.05-36 82.2-35.65L82.2-35.65 92.34-12.05 102.65-35.65Q102.75-35.95 102.34-36.25 101.94-36.55 101.34-36.55L101.34-36.55 101.34-37.5 114.5-37.5 114.5-36.55Q114.15-36.55 113.77-36.4 113.4-36.25 113.4-36L113.4-36Z" opacity="1" transform="matrix(1,0,0,1,0,0)" fill="#000000" class="wordmark-text-0" data-fill-palette-color="primary" id="text-0"></path></svg></g></svg></g><g transform="matrix(1,0,0,1,0,176.49007524840692)"><svg viewBox="0 0 232.209792 15.125510726995426" height="15.125510726995426" width="232.209792"><g transform="matrix(1,0,0,1,0,0)"><svg width="232.209792" viewBox="1.9 -45.15 786.71 51.25" height="15.125510726995426" data-palette-color="#61777f"><path d="M19.35 0L1.9 0 1.9-42.95 10.5-42.95 10.5-7.3 19.35-7.3 19.35 0ZM30.3-39.05L21.55-39.05 21.55-45.15 30.3-45.15 30.3-39.05ZM30.3 0L21.55 0 21.55-36.6 30.3-36.6 30.3 0ZM43.59 5.35Q39.7 5.35 37.47 4.73 35.25 4.1 33.09 2.35L33.09 2.35 36.09-2.7Q39.3-0.8 42.45-0.8L42.45-0.8Q44.5-0.8 45.55-2.1 46.59-3.4 46.59-5.65L46.59-5.65 46.59-7.65Q45.55-3.9 41.05-3.9L41.05-3.9Q37.3-3.9 35.52-6.45 33.75-9 33.75-13.25L33.75-13.25 33.75-27Q33.75-31.85 35.37-34.43 37-37 41.05-37L41.05-37Q43.4-37 44.77-35.83 46.15-34.65 46.59-32.5L46.59-32.5 46.59-36.6 55.55-36.6 55.55-6.2Q55.55-0.05 52.7 2.65 49.84 5.35 43.59 5.35L43.59 5.35ZM44.55-10.5Q46.59-10.5 46.59-14.2L46.59-14.2 46.59-27.25Q46.59-28.35 46-29.35 45.4-30.35 44.5-30.35L44.5-30.35Q43.34-30.35 42.95-29.53 42.55-28.7 42.55-27.25L42.55-27.25 42.55-14.2Q42.55-12.55 42.95-11.53 43.34-10.5 44.55-10.5L44.55-10.5ZM58.94 0L58.94-43.2 67.94-43.2 67.94-33Q69.34-37 73.29-37L73.29-37Q76.99-37 78.89-34.65 80.79-32.3 80.79-28.2L80.79-28.2 80.79 0 72.04 0 72.04-27.65Q72.04-28.85 71.49-29.6 70.94-30.35 69.89-30.35L69.89-30.35Q68.99-30.35 68.47-29.58 67.94-28.8 67.94-27.7L67.94-27.7 67.94 0 58.94 0ZM91.74 0.4Q88.29 0.4 86.99-1.05 85.69-2.5 85.69-5.7L85.69-5.7 85.69-28.55 83.24-28.55 83.24-35.2 85.69-35.2 85.69-42.95 94.19-42.95 94.19-35.2 96.69-35.2 96.69-28.55 94.19-28.55 94.19-8Q94.19-7.05 94.34-6.6 94.49-6.15 95.14-6.15L95.14-6.15Q95.64-6.15 96.09-6.2 96.54-6.25 96.69-6.25L96.69-6.25 96.69-0.25Q95.94-0.05 94.52 0.18 93.09 0.4 91.74 0.4L91.74 0.4ZM108.14-39.05L99.39-39.05 99.39-45.15 108.14-45.15 108.14-39.05ZM108.14 0L99.39 0 99.39-36.6 108.14-36.6 108.14 0ZM111.59 0L111.59-36.6 120.34-36.6 120.34-31.95Q120.89-34.2 122.24-35.6 123.59-37 125.84-37L125.84-37Q129.54-37 131.31-34.73 133.09-32.45 133.09-28.25L133.09-28.25 133.09 0 124.49 0 124.49-27.35Q124.49-28.55 124.01-29.4 123.54-30.25 122.54-30.25L122.54-30.25Q121.19-30.25 120.76-29.03 120.34-27.8 120.34-25.75L120.34-25.75 120.34 0 111.59 0ZM146.38 5.35Q142.48 5.35 140.26 4.73 138.03 4.1 135.88 2.35L135.88 2.35 138.88-2.7Q142.08-0.8 145.23-0.8L145.23-0.8Q147.28-0.8 148.33-2.1 149.38-3.4 149.38-5.65L149.38-5.65 149.38-7.65Q148.33-3.9 143.83-3.9L143.83-3.9Q140.08-3.9 138.31-6.45 136.53-9 136.53-13.25L136.53-13.25 136.53-27Q136.53-31.85 138.16-34.43 139.78-37 143.83-37L143.83-37Q146.18-37 147.56-35.83 148.93-34.65 149.38-32.5L149.38-32.5 149.38-36.6 158.33-36.6 158.33-6.2Q158.33-0.05 155.48 2.65 152.63 5.35 146.38 5.35L146.38 5.35ZM147.33-10.5Q149.38-10.5 149.38-14.2L149.38-14.2 149.38-27.25Q149.38-28.35 148.78-29.35 148.18-30.35 147.28-30.35L147.28-30.35Q146.13-30.35 145.73-29.53 145.33-28.7 145.33-27.25L145.33-27.25 145.33-14.2Q145.33-12.55 145.73-11.53 146.13-10.5 147.33-10.5L147.33-10.5ZM183.58 0.4Q178.88 0.4 176.05-2.55 173.23-5.5 173.23-10.65L173.23-10.65 173.23-30.45Q173.23-36.85 175.78-40.1 178.33-43.35 183.78-43.35L183.78-43.35Q188.53-43.35 191.43-40.75 194.33-38.15 194.33-33.25L194.33-33.25 194.33-25.85 185.78-25.85 185.78-32.2Q185.78-34.05 185.33-34.75 184.88-35.45 183.78-35.45L183.78-35.45Q182.63-35.45 182.2-34.65 181.78-33.85 181.78-32.3L181.78-32.3 181.78-10.75Q181.78-9.05 182.28-8.28 182.78-7.5 183.78-7.5L183.78-7.5Q185.78-7.5 185.78-10.75L185.78-10.75 185.78-18.5 194.43-18.5 194.43-10.4Q194.43 0.4 183.58 0.4L183.58 0.4ZM207.78 0.4Q196.82 0.4 196.82-10.95L196.82-10.95 196.82-25.65Q196.82-30.85 199.75-33.93 202.68-37 207.78-37L207.78-37Q212.88-37 215.8-33.93 218.72-30.85 218.72-25.65L218.72-25.65 218.72-10.95Q218.72 0.4 207.78 0.4L207.78 0.4ZM207.78-6.35Q208.82-6.35 209.32-7.1 209.82-7.85 209.82-9.15L209.82-9.15 209.82-27.05Q209.82-30.25 207.78-30.25L207.78-30.25Q205.72-30.25 205.72-27.05L205.72-27.05 205.72-9.15Q205.72-7.85 206.22-7.1 206.72-6.35 207.78-6.35L207.78-6.35ZM221.97 0L221.97-36.6 230.72-36.6 230.72-31.95Q231.27-34.2 232.62-35.6 233.97-37 236.22-37L236.22-37Q239.92-37 241.7-34.73 243.47-32.45 243.47-28.25L243.47-28.25 243.47 0 234.87 0 234.87-27.35Q234.87-28.55 234.4-29.4 233.92-30.25 232.92-30.25L232.92-30.25Q231.57-30.25 231.15-29.03 230.72-27.8 230.72-25.75L230.72-25.75 230.72 0 221.97 0ZM254.47 0.4Q251.02 0.4 249.72-1.05 248.42-2.5 248.42-5.7L248.42-5.7 248.42-28.55 245.97-28.55 245.97-35.2 248.42-35.2 248.42-42.95 256.92-42.95 256.92-35.2 259.42-35.2 259.42-28.55 256.92-28.55 256.92-8Q256.92-7.05 257.07-6.6 257.22-6.15 257.87-6.15L257.87-6.15Q258.37-6.15 258.82-6.2 259.27-6.25 259.42-6.25L259.42-6.25 259.42-0.25Q258.67-0.05 257.25 0.18 255.82 0.4 254.47 0.4L254.47 0.4ZM262.17 0L262.17-36.6 270.92-36.6 270.92-32.55Q271.57-34.7 273.19-35.88 274.82-37.05 277.22-37.05L277.22-37.05 277.22-29.75Q275.37-29.75 273.14-29.23 270.92-28.7 270.92-28L270.92-28 270.92 0 262.17 0ZM290.01 0.4Q279.06 0.4 279.06-10.95L279.06-10.95 279.06-25.65Q279.06-30.85 281.99-33.93 284.92-37 290.01-37L290.01-37Q295.12-37 298.04-33.93 300.97-30.85 300.97-25.65L300.97-25.65 300.97-10.95Q300.97 0.4 290.01 0.4L290.01 0.4ZM290.01-6.35Q291.06-6.35 291.56-7.1 292.06-7.85 292.06-9.15L292.06-9.15 292.06-27.05Q292.06-30.25 290.01-30.25L290.01-30.25Q287.97-30.25 287.97-27.05L287.97-27.05 287.97-9.15Q287.97-7.85 288.47-7.1 288.97-6.35 290.01-6.35L290.01-6.35ZM313.11 0L304.21 0 304.21-43.2 313.11-43.2 313.11 0ZM335.66 0L327.31 0 331.46-42.95 346.01-42.95 350.11 0 341.96 0 341.36-6.95 336.16-6.95 335.66 0ZM338.41-35.65L336.81-13.8 340.71-13.8 338.81-35.65 338.41-35.65ZM352.56 0L352.56-36.6 361.31-36.6 361.31-31.95Q361.86-34.2 363.2-35.6 364.56-37 366.81-37L366.81-37Q370.5-37 372.28-34.73 374.06-32.45 374.06-28.25L374.06-28.25 374.06 0 365.45 0 365.45-27.35Q365.45-28.55 364.98-29.4 364.5-30.25 363.5-30.25L363.5-30.25Q362.16-30.25 361.73-29.03 361.31-27.8 361.31-25.75L361.31-25.75 361.31 0 352.56 0ZM384.7 0.4Q381.5 0.4 379.88-1.13 378.25-2.65 377.73-5.18 377.2-7.7 377.2-11.65L377.2-11.65 377.3-28.15Q377.3-32.05 379.28-34.52 381.25-37 384.85-37L384.85-37Q388.4-37 390.15-34.65L390.15-34.65 390.15-43.2 398.9-43.2 398.9 0 390.15 0 390.15-3.9Q389.4-1.75 388.13-0.68 386.85 0.4 384.7 0.4L384.7 0.4ZM388.05-6.45Q389.35-6.45 389.75-7.73 390.15-9 390.15-11.15L390.15-11.15 390.15-12.7 390.15-26.45Q390.15-28.05 389.7-29.15 389.25-30.25 388.1-30.25L388.1-30.25Q386.8-30.25 386.38-29.23 385.95-28.2 385.95-26.45L385.95-26.45 385.95-11.05Q385.95-6.45 388.05-6.45L388.05-6.45ZM422 0L414.25 0 414.25-42.95 427.35-42.95 430.95-16.75 434.55-42.95 447.75-42.95 447.75 0 439.9 0 439.9-30.95 434.95 0 427.25 0 422-30.95 422 0ZM462.04 0.4Q451.09 0.4 451.09-10.95L451.09-10.95 451.09-25.65Q451.09-30.85 454.02-33.93 456.94-37 462.04-37L462.04-37Q467.14-37 470.07-33.93 473-30.85 473-25.65L473-25.65 473-10.95Q473 0.4 462.04 0.4L462.04 0.4ZM462.04-6.35Q463.09-6.35 463.59-7.1 464.09-7.85 464.09-9.15L464.09-9.15 464.09-27.05Q464.09-30.25 462.04-30.25L462.04-30.25Q460-30.25 460-27.05L460-27.05 460-9.15Q460-7.85 460.5-7.1 461-6.35 462.04-6.35L462.04-6.35ZM476.24 0L476.24-36.6 484.99-36.6 484.99-31.95Q485.54-34.2 486.89-35.6 488.24-37 490.49-37L490.49-37Q494.19-37 495.97-34.73 497.74-32.45 497.74-28.25L497.74-28.25 497.74 0 489.14 0 489.14-27.35Q489.14-28.55 488.67-29.4 488.19-30.25 487.19-30.25L487.19-30.25Q485.84-30.25 485.42-29.03 484.99-27.8 484.99-25.75L484.99-25.75 484.99 0 476.24 0ZM509.89-39.05L501.14-39.05 501.14-45.15 509.89-45.15 509.89-39.05ZM509.89 0L501.14 0 501.14-36.6 509.89-36.6 509.89 0ZM520.89 0.4Q517.44 0.4 516.14-1.05 514.84-2.5 514.84-5.7L514.84-5.7 514.84-28.55 512.39-28.55 512.39-35.2 514.84-35.2 514.84-42.95 523.34-42.95 523.34-35.2 525.84-35.2 525.84-28.55 523.34-28.55 523.34-8Q523.34-7.05 523.49-6.6 523.64-6.15 524.29-6.15L524.29-6.15Q524.79-6.15 525.24-6.2 525.69-6.25 525.84-6.25L525.84-6.25 525.84-0.25Q525.09-0.05 523.66 0.18 522.24 0.4 520.89 0.4L520.89 0.4ZM539.23 0.4Q528.28 0.4 528.28-10.95L528.28-10.95 528.28-25.65Q528.28-30.85 531.21-33.93 534.13-37 539.23-37L539.23-37Q544.33-37 547.26-33.93 550.18-30.85 550.18-25.65L550.18-25.65 550.18-10.95Q550.18 0.4 539.23 0.4L539.23 0.4ZM539.23-6.35Q540.28-6.35 540.78-7.1 541.28-7.85 541.28-9.15L541.28-9.15 541.28-27.05Q541.28-30.25 539.23-30.25L539.23-30.25Q537.18-30.25 537.18-27.05L537.18-27.05 537.18-9.15Q537.18-7.85 537.68-7.1 538.18-6.35 539.23-6.35L539.23-6.35ZM553.43 0L553.43-36.6 562.18-36.6 562.18-32.55Q562.83-34.7 564.46-35.88 566.08-37.05 568.48-37.05L568.48-37.05 568.48-29.75Q566.63-29.75 564.41-29.23 562.18-28.7 562.18-28L562.18-28 562.18 0 553.43 0ZM579.33-39.05L570.58-39.05 570.58-45.15 579.33-45.15 579.33-39.05ZM579.33 0L570.58 0 570.58-36.6 579.33-36.6 579.33 0ZM582.78 0L582.78-36.6 591.53-36.6 591.53-31.95Q592.08-34.2 593.43-35.6 594.78-37 597.03-37L597.03-37Q600.73-37 602.5-34.73 604.28-32.45 604.28-28.25L604.28-28.25 604.28 0 595.68 0 595.68-27.35Q595.68-28.55 595.2-29.4 594.73-30.25 593.73-30.25L593.73-30.25Q592.38-30.25 591.95-29.03 591.53-27.8 591.53-25.75L591.53-25.75 591.53 0 582.78 0ZM617.57 5.35Q613.67 5.35 611.45 4.73 609.22 4.1 607.07 2.35L607.07 2.35 610.07-2.7Q613.27-0.8 616.42-0.8L616.42-0.8Q618.47-0.8 619.52-2.1 620.57-3.4 620.57-5.65L620.57-5.65 620.57-7.65Q619.52-3.9 615.02-3.9L615.02-3.9Q611.27-3.9 609.5-6.45 607.72-9 607.72-13.25L607.72-13.25 607.72-27Q607.72-31.85 609.35-34.43 610.97-37 615.02-37L615.02-37Q617.37-37 618.75-35.83 620.12-34.65 620.57-32.5L620.57-32.5 620.57-36.6 629.52-36.6 629.52-6.2Q629.52-0.05 626.67 2.65 623.82 5.35 617.57 5.35L617.57 5.35ZM618.52-10.5Q620.57-10.5 620.57-14.2L620.57-14.2 620.57-27.25Q620.57-28.35 619.97-29.35 619.37-30.35 618.47-30.35L618.47-30.35Q617.32-30.35 616.92-29.53 616.52-28.7 616.52-27.25L616.52-27.25 616.52-14.2Q616.52-12.55 616.92-11.53 617.32-10.5 618.52-10.5L618.52-10.5ZM654.97 0.4Q649.12 0.4 646.52-2.5 643.92-5.4 643.92-11.85L643.92-11.85 643.92-16.05 652.37-16.05 652.37-10.7Q652.37-7.5 654.42-7.5L654.42-7.5Q655.57-7.5 656.02-8.18 656.47-8.85 656.47-10.45L656.47-10.45Q656.47-12.55 655.97-13.93 655.47-15.3 654.69-16.23 653.92-17.15 651.92-19.1L651.92-19.1 648.22-22.8Q643.92-27 643.92-32.1L643.92-32.1Q643.92-37.6 646.44-40.48 648.97-43.35 653.82-43.35L653.82-43.35Q659.62-43.35 662.17-40.28 664.72-37.2 664.72-30.65L664.72-30.65 655.97-30.65 655.92-33.6Q655.92-34.45 655.44-34.95 654.97-35.45 654.12-35.45L654.12-35.45Q653.12-35.45 652.62-34.9 652.12-34.35 652.12-33.4L652.12-33.4Q652.12-31.3 654.52-29.05L654.52-29.05 659.52-24.25Q661.27-22.55 662.42-21.03 663.57-19.5 664.27-17.43 664.97-15.35 664.97-12.5L664.97-12.5Q664.97-6.15 662.64-2.88 660.32 0.4 654.97 0.4L654.97 0.4ZM666.97 6.1L666.97 0.55 671.17 0.55Q672.07 0.55 672.07-0.2L672.07-0.2Q672.07-0.55 672.02-0.75L672.02-0.75 666.32-36.6 674.67-36.6 676.32-18.75 677.12-9.65 678.07-18.75 680.02-36.6 688.42-36.6 681.62 1.9Q681.27 4.05 680.19 5.08 679.12 6.1 676.82 6.1L676.82 6.1 666.97 6.1ZM700.76 0.4Q689.91 0.4 689.91-10.6L689.91-10.6 689.96-13.5 698.71-13.5 698.76-9.2Q698.76-7.9 699.26-7.23 699.76-6.55 700.91-6.55L700.91-6.55Q702.66-6.55 702.66-9.4L702.66-9.4Q702.66-11.5 701.84-12.7 701.01-13.9 699.21-15.25L699.21-15.25 694.56-18.85Q692.16-20.7 691.11-22.68 690.06-24.65 690.06-28.25L690.06-28.25Q690.06-31.05 691.54-33.02 693.01-35 695.46-36 697.91-37 700.91-37L700.91-37Q711.56-37 711.56-26.4L711.56-26.4 711.56-25.7 702.51-25.7 702.51-27.1Q702.51-28.4 702.09-29.33 701.66-30.25 700.66-30.25L700.66-30.25Q699.76-30.25 699.29-29.73 698.81-29.2 698.81-28.3L698.81-28.3Q698.81-26.3 700.36-25.2L700.36-25.2 705.76-21.25Q708.66-19.1 710.21-16.57 711.76-14.05 711.76-10.2L711.76-10.2Q711.76-5.1 708.86-2.35 705.96 0.4 700.76 0.4L700.76 0.4ZM722.01 0.4Q718.56 0.4 717.26-1.05 715.96-2.5 715.96-5.7L715.96-5.7 715.96-28.55 713.51-28.55 713.51-35.2 715.96-35.2 715.96-42.95 724.46-42.95 724.46-35.2 726.96-35.2 726.96-28.55 724.46-28.55 724.46-8Q724.46-7.05 724.61-6.6 724.76-6.15 725.41-6.15L725.41-6.15Q725.91-6.15 726.36-6.2 726.81-6.25 726.96-6.25L726.96-6.25 726.96-0.25Q726.21-0.05 724.79 0.18 723.36 0.4 722.01 0.4L722.01 0.4ZM739.96 0.4Q734.31 0.4 731.86-2.7 729.41-5.8 729.41-11.95L729.41-11.95 729.41-26.65Q729.41-31.7 732.31-34.35 735.21-37 740.41-37L740.41-37Q750.96-37 750.96-26.65L750.96-26.65 750.96-24Q750.96-20 750.86-17.5L750.86-17.5 738.16-17.5 738.16-10.4Q738.16-8.5 738.56-7.43 738.96-6.35 740.26-6.35L740.26-6.35Q741.26-6.35 741.68-6.95 742.11-7.55 742.18-8.33 742.26-9.1 742.26-10.6L742.26-10.6 742.26-14.15 750.96-14.15 750.96-12.05Q750.96-5.65 748.48-2.63 746.01 0.4 739.96 0.4L739.96 0.4ZM738.11-21.85L742.26-21.85 742.26-26.55Q742.26-30.5 740.31-30.5L740.31-30.5Q738.11-30.5 738.11-26.55L738.11-26.55 738.11-21.85ZM754.11 0L754.11-36.6 762.66-36.6 762.66-32.35Q763.26-34.7 764.71-35.85 766.16-37 768.81-37L768.81-37Q770.96-37 772.53-36.02 774.11-35.05 774.76-33.35L774.76-33.35Q775.86-35.25 777.21-36.13 778.56-37 780.96-37L780.96-37Q785.26-37 786.93-34.38 788.61-31.75 788.61-26.75L788.61-26.75 788.51 0 779.71 0 779.71-26.9Q779.71-30.45 777.91-30.45L777.91-30.45Q776.66-30.45 776.11-29.23 775.56-28 775.56-26.3L775.56-26.3 775.56 0 766.81 0 766.81-26.9Q766.81-28.45 766.48-29.4 766.16-30.35 765.11-30.35L765.11-30.35Q763.76-30.35 763.21-29.03 762.66-27.7 762.66-25.85L762.66-25.85 762.66 0 754.11 0Z" opacity="1" transform="matrix(1,0,0,1,0,0)" fill="#61777f" class="slogan-text-1" data-fill-palette-color="secondary" id="text-1"></path></svg></g></svg></g></svg></g></svg></g><g><svg viewBox="0 0 212.98529580678357 212.98529580678357" height="212.98529580678357" width="212.98529580678357"><g><svg></svg></g><g id="icon-0"><svg viewBox="0 0 212.98529580678357 212.98529580678357" height="212.98529580678357" width="212.98529580678357"><g><path d="M0 106.493c0-58.814 47.678-106.493 106.493-106.493 58.814 0 106.493 47.678 106.492 106.493 0 58.814-47.678 106.493-106.492 106.492-58.814 0-106.493-47.678-106.493-106.492zM106.493 200.109c51.703 0 93.616-41.913 93.616-93.616 0-51.703-41.913-93.616-93.616-93.617-51.703 0-93.616 41.913-93.617 93.617 0 51.703 41.913 93.616 93.617 93.616z" data-fill-palette-color="accent" fill="#61777f" stroke="transparent"></path></g><g transform="matrix(1,0,0,1,58.031869137325714,58.031869137325714)"><svg viewBox="0 0 96.92155753213214 96.92155753213214" height="96.92155753213214" width="96.92155753213214"><g><svg xmlns="http://www.w3.org/2000/svg" xmlns:xlink="http://www.w3.org/1999/xlink" version="1.1" x="0" y="0" viewBox="28 25 28 28" enable-background="new 0 0 80 80" xml:space="preserve" height="96.92155753213214" width="96.92155753213214" class="icon-dxe-0" data-fill-palette-color="accent" id="dxe-0"><g fill="#61777f" data-fill-palette-color="accent"><g fill="#61777f" data-fill-palette-color="accent"><path fill="#61777f" d="M42 42.4C40 42.4 38.3 40.8 38.3 38.7S39.9 35 42 35 45.7 36.6 45.7 38.7 44 42.4 42 42.4M42 37.1C41.1 37.1 40.3 37.8 40.3 38.8S41 40.5 42 40.5 43.7 39.8 43.7 38.8 42.9 37.1 42 37.1" data-fill-palette-color="accent"></path></g><g fill="#61777f" data-fill-palette-color="accent"><g fill="#61777f" data-fill-palette-color="accent"><g fill="#61777f" data-fill-palette-color="accent"><rect x="36.1" y="42.1" transform="matrix(0.7071 0.7071 -0.7071 0.7071 41.5559 -13.5193)" fill="#61777f" width="2" height="2.7" data-fill-palette-color="accent"></rect></g><g fill="#61777f" data-fill-palette-color="accent"><rect x="45.9" y="32.3" transform="matrix(0.7071 0.7071 -0.7071 0.7071 37.4943 -23.3249)" fill="#61777f" width="2" height="2.7" data-fill-palette-color="accent"></rect></g></g><g fill="#61777f" data-fill-palette-color="accent"><g fill="#61777f" data-fill-palette-color="accent"><rect x="34" y="38" fill="#61777f" width="2" height="2" data-fill-palette-color="accent"></rect></g><g fill="#61777f" data-fill-palette-color="accent"><rect x="48" y="38" fill="#61777f" width="2" height="2" data-fill-palette-color="accent"></rect></g></g><g fill="#61777f" data-fill-palette-color="accent"><g fill="#61777f" data-fill-palette-color="accent"><rect x="35.8" y="32.6" transform="matrix(0.7071 0.7071 -0.7071 0.7071 34.6223 -16.3913)" fill="#61777f" width="2.7" height="2" data-fill-palette-color="accent"></rect></g><g fill="#61777f" data-fill-palette-color="accent"><rect x="45.6" y="42.4" transform="matrix(0.7071 0.7071 -0.7071 0.7071 44.428 -20.4529)" fill="#61777f" width="2.7" height="2" data-fill-palette-color="accent"></rect></g></g><g fill="#61777f" data-fill-palette-color="accent"><g fill="#61777f" data-fill-palette-color="accent"><rect x="41" y="31" fill="#61777f" width="2" height="2" data-fill-palette-color="accent"></rect></g><g fill="#61777f" data-fill-palette-color="accent"><rect x="41" y="45" fill="#61777f" width="2" height="2" data-fill-palette-color="accent"></rect></g></g></g></g><g fill="#61777f" data-fill-palette-color="accent"><path fill="#61777f" d="M53 53H31C29.3 53 28 51.7 28 50V28C28 26.3 29.3 25 31 25H53C54.7 25 56 26.3 56 28V50C56 51.7 54.7 53 53 53M31 27C30.4 27 30 27.4 30 28V50C30 50.6 30.4 51 31 51H53C53.6 51 54 50.6 54 50V28C54 27.4 53.6 27 53 27z" data-fill-palette-color="accent"></path></g></svg></g></svg></g></svg></g></svg></g></svg></g><defs></defs></svg><rect width="395.52" height="124.62998493805827" fill="none" stroke="none" visibility="hidden"></rect></g></svg></g></svg>